<?xml version="1.0" standalone="no"?>
<!DOCTYPE svg PUBLIC "-//W3C//DTD SVG 20010904//EN"
 "http://www.w3.org/TR/2001/REC-SVG-20010904/DTD/svg10.dtd">
<svg version="1.0" xmlns="http://www.w3.org/2000/svg"
 width="466.677486pt" height="477.934992pt" viewBox="0 0 466.677486 477.934992"
 preserveAspectRatio="xMidYMid meet">
<metadata>
Created by potrace 1.12, written by Peter Selinger 2001-2015
</metadata>
<g transform="translate(-23.500280,478.934992) scale(0.100000,-0.100000)"
fill="#000000" stroke="none">
<path d="M416 4775 c-190 -52 -243 -267 -81 -328 35 -14 94 -22 195 -27 157
-9 175 -13 190 -41 36 -67 -213 -67 -365 0 l-42 19 -42 -80 c-22 -44 -39 -84
-36 -89 11 -17 162 -57 260 -69 232 -28 399 25 433 138 48 160 -53 240 -302
243 -107 1 -171 17 -171 44 0 29 41 45 116 45 73 0 203 -30 262 -60 28 -15 39
-17 42 -8 2 7 16 44 29 81 l25 68 -42 18 c-24 10 -81 28 -127 40 -98 25 -265
27 -344 6z"/>
<path d="M1020 4778 c0 -2 -1 -141 -3 -311 l-2 -307 326 0 326 0 7 53 c3 28 6
64 6 80 l0 27 -235 0 -235 0 0 40 0 40 205 0 205 0 0 70 0 70 -202 2 -203 3
-3 38 -3 37 230 0 230 0 3 73 3 72 91 -215 c51 -118 106 -254 124 -302 l33
-88 126 0 127 0 33 93 c19 50 73 186 122 301 49 115 89 213 89 218 0 5 -50 7
-111 6 l-111 -3 -71 -198 c-39 -109 -73 -194 -77 -190 -9 10 -140 369 -140
383 0 7 -149 10 -445 10 -245 0 -445 -1 -445 -2z"/>
<path d="M2601 4758 c-5 -13 -53 -135 -106 -273 -53 -137 -103 -267 -111 -287
l-13 -38 108 0 108 0 18 60 18 60 138 0 137 0 17 -52 c10 -29 21 -57 25 -61 4
-4 54 -6 113 -5 l105 3 -118 305 -118 305 -156 3 c-155 2 -156 2 -165 -20z
m239 -329 c0 -5 -36 -9 -80 -9 -44 0 -80 2 -80 4 0 5 47 132 70 191 12 30 12
29 51 -74 21 -57 39 -108 39 -112z"/>
<path d="M3440 4779 c0 -2 -1 -142 -3 -312 l-2 -307 97 0 97 0 3 98 3 97 62 3
62 3 58 -100 58 -100 118 -1 117 0 -70 96 c-39 52 -73 101 -76 107 -2 7 16 20
41 31 55 22 90 66 104 129 25 110 -35 206 -149 236 -41 11 -520 29 -520 20z
m461 -179 c11 -6 19 -21 19 -35 0 -37 -28 -45 -164 -45 l-126 0 0 45 0 45 126
0 c69 0 134 -5 145 -10z"/>
<path d="M4184 4765 c-4 -9 -5 -104 -2 -213 3 -193 4 -199 32 -255 52 -106
129 -140 321 -141 182 -1 283 49 336 166 22 49 24 68 27 256 l4 202 -105 0
-105 0 -4 -195 -3 -195 -30 -30 c-56 -55 -204 -51 -243 7 -14 23 -18 57 -21
220 l-3 193 -99 0 c-80 0 -101 -3 -105 -15z"/>
<path d="M3226 4305 c-57 -53 -19 -149 59 -149 78 0 116 96 59 149 -17 16 -39
25 -59 25 -20 0 -42 -9 -59 -25z"/>
<path d="M3615 3644 c-200 -63 -338 -134 -529 -273 -145 -105 -193 -158 -254
-281 -46 -93 -47 -97 -47 -190 0 -109 22 -195 61 -230 30 -29 41 -21 15 9 -23
26 -41 102 -41 170 0 70 28 198 56 252 24 47 123 154 180 193 243 165 422 266
476 266 44 0 127 -36 153 -66 13 -15 31 -46 40 -68 54 -129 79 -166 110 -166
65 0 32 168 -51 259 -45 51 -58 46 -17 -6 17 -21 34 -49 38 -63 6 -21 0 -18
-36 20 -48 49 -134 110 -156 110 -7 0 -13 5 -13 11 0 7 12 9 36 5 30 -6 35 -5
32 10 -4 24 51 38 125 31 73 -7 135 -42 179 -104 40 -57 49 -75 77 -169 32
-108 79 -134 105 -61 20 56 -50 207 -128 275 -44 38 -26 42 30 6 56 -36 102
-108 129 -202 27 -91 43 -122 66 -122 40 0 33 69 -17 175 -32 67 -73 125 -89
125 -4 0 -4 -8 -1 -17 4 -10 -3 -6 -17 9 -48 51 -104 80 -174 89 -137 18 -285
19 -338 3z m345 -25 c0 -5 5 -7 12 -3 6 4 8 3 5 -3 -3 -5 10 -25 29 -44 45
-43 94 -113 94 -133 0 -27 -16 -18 -34 20 -22 48 -91 129 -130 154 l-31 20 28
0 c15 0 27 -5 27 -11z"/>
<path d="M4056 3629 c3 -5 24 -17 47 -28 23 -10 53 -30 68 -43 37 -34 93 -129
129 -218 30 -75 50 -98 72 -84 24 15 -28 168 -82 244 -12 17 -17 30 -11 30 18
0 55 -62 103 -175 26 -60 54 -111 62 -113 13 -3 26 -44 26 -83 0 -17 -3 -17
-37 -5 -21 7 -67 16 -103 19 l-65 5 67 -13 c77 -16 128 -39 128 -59 0 -24 -13
-26 -34 -3 -17 18 -42 27 -101 36 -44 7 -84 18 -88 25 -5 6 -6 -11 -3 -37 6
-47 5 -48 -20 -45 -20 2 -29 12 -39 41 -7 21 -16 42 -20 45 -4 4 -89 6 -190 6
-155 -1 -192 -5 -247 -22 -91 -30 -340 -144 -370 -170 -36 -31 -12 -72 42 -72
12 0 88 27 170 60 81 32 176 64 211 70 35 6 156 14 269 17 217 6 379 -6 430
-32 43 -22 53 -64 23 -98 -17 -19 -17 -20 4 -8 12 6 24 20 28 31 9 30 -23 89
-53 97 l-25 6 28 24 28 25 -13 71 c-17 100 -50 205 -76 248 -31 50 -86 99
-146 132 -50 26 -78 29 -46 4 18 -13 58 -77 58 -91 0 -5 -17 15 -38 45 -23 34
-57 66 -90 85 -51 31 -107 50 -96 33z m-321 -540 c9 -26 -4 -39 -41 -42 -29
-2 -42 18 -30 49 9 23 63 18 71 -7z m-125 -39 c0 -15 -7 -20 -27 -20 l-28 1
24 19 c29 25 31 25 31 0z"/>
<path d="M3730 3622 c0 -4 18 -18 41 -32 48 -30 98 -106 135 -205 14 -38 30
-80 35 -93 11 -29 35 -38 55 -21 12 10 15 25 11 58 -5 48 -74 192 -95 199 -7
2 0 -18 16 -45 26 -43 52 -107 52 -122 0 -3 -13 20 -29 51 -37 74 -105 154
-160 190 -46 29 -61 34 -61 20z"/>
<path d="M3427 3390 c-73 -14 -62 -27 18 -22 87 5 100 -2 135 -75 12 -25 24
-43 27 -40 3 3 -6 30 -20 60 -18 40 -33 58 -60 70 -38 18 -42 19 -100 7z"/>
<path d="M3196 3345 c-15 -40 -2 -125 59 -374 36 -146 69 -279 74 -296 8 -28
9 -28 10 -5 1 14 -6 57 -14 95 -9 39 -20 92 -25 118 -9 46 -34 155 -65 283 -8
33 -15 85 -15 115 0 59 -13 93 -24 64z"/>
<path d="M3263 3320 c-13 -5 -23 -12 -23 -15 0 -10 27 -5 46 10 21 16 11 18
-23 5z"/>
<path d="M3390 3213 c0 -12 5 -25 10 -28 13 -8 13 15 0 35 -8 12 -10 11 -10
-7z"/>
<path d="M2998 3133 c-19 -15 -43 -39 -53 -53 -11 -14 3 -6 31 19 27 24 53 48
59 53 22 19 -5 6 -37 -19z"/>
<path d="M2866 2981 c-18 -33 -22 -126 -6 -116 6 3 10 21 10 39 0 18 5 47 11
65 15 42 5 51 -15 12z"/>
<path d="M3845 2988 c-267 -50 -445 -121 -461 -183 -8 -32 12 -65 40 -65 21 0
148 39 191 59 44 21 145 50 230 68 131 26 591 26 648 0 47 -22 65 -56 48 -94
-11 -27 -11 -27 5 -8 18 24 13 79 -11 105 -9 10 -29 20 -44 23 -22 5 -30 13
-33 36 -3 22 0 31 11 34 36 7 -37 31 -109 35 l-75 4 3 -46 c4 -50 -3 -55 -52
-36 -16 6 -26 17 -26 29 0 50 -2 51 -164 50 -83 -1 -173 -6 -201 -11z m-67
-75 c-2 -21 -10 -29 -36 -37 -26 -7 -36 -6 -43 5 -16 25 -10 38 24 48 53 15
59 13 55 -16z m-128 -38 c0 -10 -10 -15 -26 -15 -22 0 -25 2 -14 15 7 8 19 15
26 15 8 0 14 -7 14 -15z"/>
<path d="M3100 2891 c-44 -14 -93 -42 -163 -94 -73 -53 -86 -81 -14 -30 71 50
74 49 19 -6 -43 -41 -53 -57 -48 -75 3 -14 -3 -35 -20 -60 -23 -34 -25 -40
-13 -69 17 -42 40 -79 47 -73 2 3 -5 26 -17 52 -21 43 -21 48 -6 71 16 24 79
73 133 103 157 88 185 112 180 156 -3 25 -7 29 -38 31 -19 1 -46 -2 -60 -6z"/>
<path d="M4010 2819 c-118 -13 -292 -40 -325 -50 -152 -45 -236 -84 -255 -119
-15 -28 -2 -69 24 -76 12 -3 59 9 106 27 134 49 280 96 340 107 86 17 154 26
170 25 8 -1 115 -6 236 -12 126 -5 230 -14 242 -20 34 -18 46 -48 32 -82 -7
-16 -16 -29 -21 -29 -8 0 -10 8 -13 50 -1 12 -19 16 -83 18 -98 3 -103 -4 -42
-66 33 -33 51 -42 88 -47 69 -9 99 -24 105 -51 7 -26 -2 -74 -13 -74 -15 0
-21 14 -10 26 14 17 2 22 -62 29 l-54 6 -33 -46 c-44 -61 -75 -61 -140 0 l-47
45 -88 0 c-91 0 -229 -19 -332 -45 -106 -27 -230 -68 -246 -82 -8 -7 -20 -13
-25 -13 -13 0 -64 -53 -64 -66 0 -14 43 -54 58 -54 12 0 94 25 127 40 54 23
135 51 175 60 243 60 324 67 594 52 159 -9 180 -12 199 -30 19 -20 19 -22 3
-46 -19 -30 -38 -34 -34 -8 3 15 -8 17 -89 20 l-93 3 0 -41 c0 -35 -3 -40 -22
-40 -29 0 -40 8 -58 45 -12 23 -24 31 -50 33 -63 7 -324 -25 -450 -54 -97 -23
-250 -83 -282 -112 -23 -19 -23 -68 -2 -80 16 -9 79 4 129 27 146 66 402 109
695 117 123 4 230 2 250 -3 44 -12 66 -48 46 -77 -18 -28 -40 -34 -32 -9 6 18
0 21 -55 27 -87 9 -137 8 -144 -3 -3 -6 0 -30 6 -55 l11 -46 102 0 c138 0 179
-24 145 -86 -14 -27 -29 -32 -29 -10 0 34 -241 31 -510 -5 -198 -27 -249 -37
-472 -101 -53 -15 -88 -50 -88 -88 0 -57 32 -57 215 1 108 34 186 53 280 69
110 19 378 40 517 40 l137 0 9 -32 c5 -21 5 -35 -1 -39 -6 -4 -9 -64 -8 -147
2 -108 -1 -148 -13 -177 -16 -37 -16 -37 7 -31 12 3 25 6 28 6 4 0 14 21 24
47 15 38 17 65 12 152 -9 176 -35 241 -97 241 -35 0 -37 11 -9 49 14 20 19 39
17 67 -3 36 -6 40 -45 52 -49 16 -53 23 -21 37 54 24 47 112 -9 130 -47 16
-48 21 -14 54 49 48 37 92 -29 112 -45 14 -48 19 -20 37 15 9 20 23 20 56 0
45 -16 68 -58 81 -22 6 -22 6 8 36 33 33 36 46 19 82 -11 23 -31 38 -71 51
-11 3 -19 16 -19 31 -1 14 -2 30 -3 37 -2 17 -40 26 -119 27 l-68 1 7 -35 6
-35 -39 0 c-38 0 -40 2 -52 40 l-12 40 -72 -1 c-40 -1 -106 -5 -147 -10z
m-190 -77 c0 -24 -70 -48 -82 -29 -20 31 -4 43 55 46 20 1 27 -4 27 -17z
m-130 -31 c0 -12 -20 -25 -27 -18 -7 7 6 27 18 27 5 0 9 -4 9 -9z m208 -317
c2 -17 -6 -25 -35 -37 -40 -16 -47 -14 -57 19 -5 17 -1 23 26 32 45 14 62 10
66 -14z m-128 -39 c0 -10 -10 -15 -26 -15 -22 0 -25 2 -14 15 7 8 19 15 26 15
8 0 14 -7 14 -15z m173 -137 c9 -31 1 -38 -42 -38 -33 0 -39 4 -43 25 -5 26 4
32 53 34 19 1 28 -5 32 -21z m-123 -28 c0 -15 -7 -20 -27 -20 -25 0 -26 0 -8
20 10 11 22 20 27 20 4 0 8 -9 8 -20z m693 -272 c5 -34 -5 -48 -35 -48 -10 0
-19 11 -23 30 -8 37 0 50 29 50 19 0 25 -7 29 -32z m-485 -65 c3 -18 -4 -24
-37 -34 -45 -13 -46 -13 -55 18 -6 19 -2 24 26 32 46 13 63 9 66 -16z m-130
-41 c2 -7 -5 -12 -16 -12 -11 0 -28 -3 -36 -6 -12 -5 -15 -2 -10 9 9 26 54 32
62 9z"/>
<path d="M3127 2720 c-55 -21 -144 -78 -172 -111 -22 -25 -9 -20 45 19 23 16
16 7 -18 -26 -44 -40 -53 -54 -47 -72 5 -14 -1 -36 -16 -65 -20 -38 -22 -47
-11 -81 14 -45 29 -71 36 -63 3 3 -3 25 -15 48 -11 23 -17 51 -14 61 11 34
110 115 191 155 106 54 130 77 125 121 -1 8 -45 36 -54 34 -1 -1 -23 -9 -50
-20z"/>
<path d="M4130 2650 c-153 -8 -299 -30 -390 -59 -90 -30 -193 -73 -233 -98
-33 -21 -38 -28 -35 -56 3 -28 7 -32 34 -35 18 -2 51 5 75 16 58 25 142 57
204 76 81 25 284 56 372 56 l83 0 29 47 c27 43 32 66 13 61 -4 -1 -72 -5 -152
-8z m-267 -82 c8 -28 7 -29 -42 -35 -33 -5 -41 -3 -41 11 0 9 -1 19 -2 23 -3
7 34 18 68 22 7 0 14 -9 17 -21z m-125 -30 c-3 -7 -13 -15 -24 -17 -16 -3 -17
-1 -5 13 16 19 34 21 29 4z"/>
<path d="M4379 2601 c15 -27 31 -36 31 -17 0 8 -9 20 -21 26 -19 11 -20 10
-10 -9z"/>
<path d="M4300 2591 c-13 -26 -13 -84 1 -115 14 -29 59 -51 88 -41 32 10 54
60 42 93 -9 26 -9 26 -10 -10 -2 -73 -65 -98 -96 -37 -19 36 -19 63 0 99 14
26 14 30 1 30 -9 0 -20 -9 -26 -19z"/>
<path d="M3190 2554 c-49 -16 -104 -45 -167 -87 -68 -44 -90 -63 -60 -52 22 9
19 -83 -4 -115 -24 -32 -18 -91 13 -122 28 -28 35 -13 10 22 -51 69 -13 116
173 214 83 44 135 84 135 106 0 30 -55 48 -100 34z"/>
<path d="M3370 2463 c0 -10 5 -25 10 -33 8 -12 10 -9 10 12 0 15 -4 30 -10 33
-5 3 -10 -2 -10 -12z"/>
<path d="M3210 2378 c-19 -5 -42 -16 -51 -24 -8 -8 -19 -14 -23 -14 -8 0 -86
-50 -104 -67 -21 -20 -4 -15 44 13 61 36 55 25 -12 -21 -51 -36 -55 -41 -50
-69 5 -21 1 -35 -13 -50 -30 -33 -34 -67 -11 -103 11 -18 25 -33 31 -33 6 0 1
12 -10 26 -12 15 -21 37 -21 50 0 35 85 102 214 168 63 32 117 66 119 75 11
54 -31 73 -113 49z"/>
<path d="M3232 2209 c-41 -12 -94 -42 -149 -83 -65 -48 -51 -52 17 -5 33 24
62 40 65 37 3 -3 -13 -17 -35 -32 -69 -45 -80 -58 -80 -93 0 -17 -6 -38 -13
-45 -30 -30 -39 -59 -27 -86 10 -26 57 -68 65 -60 2 2 -9 18 -25 35 -38 41
-38 65 1 97 36 30 137 91 168 101 53 16 132 71 138 94 11 45 -45 63 -125 40z"/>
<path d="M3447 2125 c3 -22 9 -47 14 -55 14 -25 9 20 -6 60 l-14 35 6 -40z"/>
<path d="M4175 2123 c-16 -2 -66 -11 -110 -20 -44 -8 -102 -19 -130 -25 -227
-43 -400 -149 -311 -189 20 -10 44 -5 138 25 156 49 264 75 388 92 58 8 134
18 170 24 36 5 71 10 78 10 15 0 16 44 2 71 -10 17 -21 19 -103 18 -51 -1
-105 -4 -122 -6z m-183 -88 c5 -22 1 -26 -34 -35 -43 -12 -58 -7 -58 19 0 20
32 39 66 40 15 1 23 -6 26 -24z m-132 -41 c0 -9 -11 -14 -35 -14 -42 0 -44 5
-8 24 30 15 43 13 43 -10z"/>
<path d="M3234 2018 c-92 -49 -96 -52 -142 -82 -49 -33 -49 -45 0 -21 26 13
29 13 14 1 -14 -11 -17 -23 -13 -44 5 -23 1 -35 -19 -52 -13 -13 -24 -35 -24
-48 0 -33 38 -92 58 -92 15 1 15 2 1 10 -8 5 -24 28 -34 50 l-19 41 30 26 c31
26 79 54 154 88 99 44 150 78 157 103 14 59 -72 69 -163 20z"/>
<path d="M3496 1880 c5 -37 11 -62 44 -205 20 -87 49 -192 71 -265 37 -118 98
-208 179 -262 21 -13 23 -18 12 -30 -22 -22 -253 -14 -351 12 -44 12 -88 28
-98 35 -16 12 -16 15 -3 28 8 8 52 34 98 57 45 24 81 45 78 47 -6 7 -191 -84
-205 -101 -9 -11 -10 -20 -1 -36 10 -20 10 -21 -8 -11 -34 18 -111 111 -133
160 -33 74 -45 137 -29 156 20 24 130 82 211 112 126 46 153 78 110 131 -36
42 -123 20 -259 -67 -91 -59 -112 -88 -29 -40 l52 30 -33 -28 c-18 -15 -32
-36 -32 -45 0 -26 -37 -22 -54 5 -30 48 -28 61 15 89 38 25 100 52 213 95 97
36 135 102 80 138 -33 21 -66 15 -154 -27 -63 -30 -162 -97 -175 -118 -11 -18
6 -11 44 18 20 16 59 41 86 56 51 28 36 14 -45 -39 -38 -26 -45 -36 -48 -68
-2 -27 -10 -42 -28 -54 -22 -14 -25 -21 -19 -52 8 -43 40 -81 68 -81 19 0 19
-1 -3 -25 -58 -61 0 -233 111 -329 57 -50 128 -82 209 -95 36 -6 66 -14 68
-18 20 -52 131 -260 127 -238 -4 17 -30 78 -60 136 l-53 106 157 8 c86 4 169
8 185 9 30 1 35 -8 67 -142 8 -32 14 -41 22 -33 8 8 7 28 -6 75 -9 35 -17 76
-17 90 0 25 2 26 53 24 43 -1 45 -2 15 -5 -63 -7 -45 -26 20 -21 45 3 67 11
97 33 l39 30 -125 6 c-68 3 -140 10 -159 16 -76 21 -160 66 -184 98 -27 35
-73 144 -101 240 -9 33 -21 71 -26 85 -18 52 -59 219 -59 242 0 12 -9 41 -20
63 l-20 40 6 -35z"/>
<path d="M4683 1823 c15 -2 37 -2 50 0 12 2 0 4 -28 4 -27 0 -38 -2 -22 -4z"/>
<path d="M4692 1778 c-14 -14 -15 -89 -3 -193 5 -46 4 -88 -4 -122 -11 -48
-11 -53 5 -53 11 0 24 16 36 48 26 65 27 251 1 300 -20 37 -19 36 -35 20z"/>
<path d="M4314 1746 c-14 -22 -14 -36 -4 -114 22 -161 -12 -298 -90 -364 -19
-16 -59 -44 -89 -61 -30 -18 -52 -36 -50 -42 12 -29 119 20 209 95 56 46 84
101 104 202 18 88 20 124 7 132 -12 8 -21 -18 -21 -57 0 -38 -10 -77 -19 -77
-3 0 -6 42 -6 92 0 51 -3 115 -7 142 -7 42 -6 47 7 36 7 -6 19 -27 25 -46 13
-37 36 -48 24 -11 -13 42 -34 76 -54 87 -16 8 -22 6 -36 -14z"/>
<path d="M4459 1749 c-8 -16 -8 -47 1 -120 16 -140 -2 -245 -55 -324 -29 -42
-23 -44 30 -8 53 36 60 46 85 130 19 65 20 81 11 142 -6 39 -11 80 -10 93 l0
23 9 -22 c15 -36 23 -27 16 18 -12 76 -62 114 -87 68z"/>
<path d="M4592 1598 c1 -111 -2 -172 -10 -192 -15 -35 -12 -40 21 -25 39 18
48 52 48 178 0 124 -16 194 -45 199 -14 3 -16 -13 -14 -160z"/>
<path d="M4180 1735 c-10 -12 -10 -33 -1 -105 22 -155 3 -216 -95 -322 -41
-43 -74 -83 -74 -88 0 -17 32 -11 78 16 130 76 182 158 182 285 0 44 -4 68
-10 64 -5 -3 -10 -28 -10 -55 0 -88 -17 -61 -24 38 -3 53 -9 107 -12 120 -10
36 12 25 30 -15 l17 -38 -6 35 c-5 31 -39 80 -56 80 -3 0 -12 -7 -19 -15z"/>
<path d="M3932 1705 c0 -16 3 -39 8 -50 l9 -20 -1 20 c0 11 -4 34 -8 50 l-8
30 0 -30z"/>
<path d="M3731 1648 c0 -7 4 -22 9 -33 8 -18 9 -17 9 7 1 15 -3 30 -9 33 -5 3
-10 0 -9 -7z"/>
<path d="M3350 1523 c0 -5 5 -15 10 -23 8 -12 10 -11 10 8 0 12 -4 22 -10 22
-5 0 -10 -3 -10 -7z"/>
<path d="M3240 1467 c0 -7 6 -21 13 -32 13 -16 14 -15 9 13 -4 31 -22 46 -22
19z"/>
<path d="M3178 1464 c-25 -24 8 -144 57 -208 43 -57 44 -42 3 42 -22 42 -42
99 -46 125 -4 27 -10 45 -14 41z"/>
<path d="M4080 1460 c-11 -7 -4 -10 25 -9 31 0 36 2 20 9 -26 11 -28 11 -45 0z"/>
<path d="M3855 1426 c-78 -32 -139 -65 -132 -72 2 -2 43 14 93 35 49 21 109
46 134 54 41 14 42 16 15 16 -16 0 -66 -15 -110 -33z"/>
<path d="M4645 1342 c-6 -4 -23 -24 -39 -45 -32 -43 -108 -82 -229 -118 -40
-12 -96 -37 -125 -57 -52 -34 -53 -37 -47 -71 10 -54 36 -130 47 -137 10 -6 1
54 -13 94 -5 13 -9 33 -8 45 0 21 1 21 10 -3 24 -57 69 -259 69 -307 0 -45 12
-74 26 -61 12 13 -45 276 -82 371 -8 21 -12 42 -9 46 2 5 22 11 44 15 22 3 46
13 54 21 8 8 17 12 19 9 6 -6 71 18 144 52 104 49 238 144 203 144 -8 0 -24
-8 -35 -17 -49 -45 -58 -49 -34 -16 23 31 25 50 5 35z"/>
<path d="M4515 1281 c-35 -21 -83 -71 -69 -71 20 0 112 75 103 84 -3 3 -18 -3
-34 -13z"/>
<path d="M3874 1245 c-24 -18 -7 -19 26 0 16 9 19 14 9 15 -8 0 -24 -7 -35
-15z"/>
<path d="M3565 1164 c-31 -16 -54 -34 -42 -34 14 0 77 34 77 42 0 10 0 10 -35
-8z"/>
<path d="M3745 1039 c-83 -15 -110 -25 -113 -43 -6 -27 103 -244 115 -232 3 2
-9 40 -25 83 -37 96 -48 148 -33 158 7 3 39 11 73 15 33 5 66 14 71 19 13 13
-14 13 -88 0z"/>
<path d="M3706 960 c8 -31 24 -50 24 -29 0 8 -7 24 -16 35 -14 18 -15 18 -8
-6z"/>
<path d="M3892 965 c0 -11 3 -29 8 -40 11 -25 11 1 0 35 -6 20 -8 21 -8 5z"/>
<path d="M4112 858 c-24 -5 -46 -16 -49 -24 -3 -7 0 -37 7 -66 21 -95 22 -105
10 -88 -7 11 -10 0 -10 -43 l0 -58 30 23 c17 12 28 28 26 35 -3 6 -12 47 -21
89 -13 63 -13 79 -3 85 15 10 44 11 74 3 35 -9 73 -92 42 -91 -53 2 -58 -2
-58 -43 l0 -41 30 16 c17 9 30 23 31 33 0 10 3 12 6 5 2 -7 14 -13 25 -13 19
0 20 4 15 45 -4 25 -16 68 -28 95 -19 45 -24 50 -53 49 -17 -1 -50 -5 -74 -11z"/>
<path d="M3997 846 c-8 -21 1 -66 14 -66 11 0 11 37 0 64 -7 18 -8 18 -14 2z"/>
<path d="M4025 703 c6 -44 4 -53 -8 -53 -8 0 -20 15 -27 33 -7 18 -14 26 -17
19 -3 -7 2 -28 11 -46 19 -40 20 -74 5 -112 -24 -64 20 -108 48 -49 19 39 12
55 -14 34 -10 -7 -6 0 10 17 27 30 27 31 17 109 -6 43 -15 84 -21 90 -8 7 -9
-4 -4 -42z"/>
<path d="M3811 703 c-17 -21 -31 -49 -31 -63 1 -23 2 -22 16 10 24 56 42 70
91 70 23 0 43 5 43 10 0 6 -20 10 -44 10 -39 0 -48 -4 -75 -37z"/>
<path d="M3690 727 c0 -7 51 -133 68 -167 19 -40 66 -112 85 -132 28 -30 37
-72 37 -179 0 -105 -13 -193 -31 -213 -12 -13 -11 -26 0 -26 10 0 38 68 51
122 l8 33 2 -35 2 -35 9 30 c5 17 16 66 24 109 9 50 22 87 35 101 11 12 20 30
20 42 0 11 9 30 20 43 31 35 24 42 -9 9 -27 -27 -91 -43 -76 -19 3 6 14 10 24
10 32 0 41 22 21 47 -15 20 -20 20 -36 8 -28 -21 -77 -18 -109 7 -16 13 -50
68 -82 135 -47 97 -63 125 -63 110z"/>
<path d="M3900 662 c0 -5 7 -16 16 -23 14 -12 16 -11 13 5 -4 20 -29 35 -29
18z"/>
<path d="M3830 635 c-7 -9 -10 -18 -7 -22 8 -7 37 15 37 28 0 14 -16 11 -30
-6z"/>
<path d="M4283 576 c-27 -20 -42 -39 -42 -53 -1 -27 0 -27 44 -9 27 12 35 22
41 51 3 20 5 37 3 39 -2 2 -23 -11 -46 -28z"/>
<path d="M3820 571 c0 -27 45 -71 74 -71 23 0 56 23 56 38 0 4 -5 14 -10 22
-8 13 -11 12 -23 -4 -18 -24 -63 -15 -72 14 -8 25 -25 26 -25 1z"/>
<path d="M4081 569 c-12 -12 -20 -24 -16 -27 3 -3 18 6 33 21 31 32 16 37 -17
6z"/>
<path d="M4193 515 c-24 -10 -32 -45 -10 -45 22 0 39 17 35 36 -2 16 -7 17
-25 9z"/>
<path d="M4035 410 c-10 -11 -16 -22 -13 -25 2 -3 14 6 26 20 26 30 13 34 -13
5z"/>
<path d="M4247 373 c-14 -13 -7 -63 8 -63 10 0 15 11 15 35 0 33 -8 43 -23 28z"/>
<path d="M4180 310 c0 -59 21 -55 35 8 6 28 4 32 -14 32 -18 0 -21 -6 -21 -40z"/>
<path d="M4007 289 c-8 -32 2 -52 19 -38 11 9 14 9 14 0 0 -7 5 -9 10 -6 6 3
10 16 10 28 0 18 -2 19 -10 7 -8 -13 -11 -11 -16 8 -8 28 -20 28 -27 1z"/>
<path d="M4110 254 c0 -21 4 -33 10 -29 6 3 10 19 10 36 0 16 -4 29 -10 29 -5
0 -10 -16 -10 -36z"/>
<path d="M4248 176 c-22 -22 -24 -66 -3 -66 16 0 29 37 23 66 -3 17 -4 17 -20
0z"/>
</g>
</svg>
